<mxfile host="app.diagrams.net" agent="Mozilla/5.0 (Windows NT 10.0; Win64; x64) AppleWebKit/537.36 (KHTML, like Gecko) Chrome/128.0.0.0 YaBrowser/24.10.0.0 Safari/537.36" version="25.0.1">
  <diagram name="Страница — 1" id="zwHLQxoCgUKJFJIdZdvc">
    <mxGraphModel dx="1002" dy="543" grid="1" gridSize="10" guides="1" tooltips="1" connect="1" arrows="1" fold="1" page="1" pageScale="1" pageWidth="827" pageHeight="1169" math="0" shadow="0">
      <root>
        <mxCell id="0" />
        <mxCell id="1" parent="0" />
        <mxCell id="izl7ZZYjlAMkSlLclQ0_-4" style="edgeStyle=orthogonalEdgeStyle;rounded=0;orthogonalLoop=1;jettySize=auto;html=1;exitX=0.5;exitY=0;exitDx=0;exitDy=0;entryX=0.5;entryY=0;entryDx=0;entryDy=0;" edge="1" parent="1" source="izl7ZZYjlAMkSlLclQ0_-1" target="izl7ZZYjlAMkSlLclQ0_-2">
          <mxGeometry relative="1" as="geometry" />
        </mxCell>
        <mxCell id="izl7ZZYjlAMkSlLclQ0_-5" style="edgeStyle=orthogonalEdgeStyle;rounded=0;orthogonalLoop=1;jettySize=auto;html=1;exitX=0.5;exitY=1;exitDx=0;exitDy=0;entryX=0.5;entryY=1;entryDx=0;entryDy=0;" edge="1" parent="1" source="izl7ZZYjlAMkSlLclQ0_-1" target="izl7ZZYjlAMkSlLclQ0_-3">
          <mxGeometry relative="1" as="geometry">
            <Array as="points">
              <mxPoint x="200" y="330" />
              <mxPoint x="464" y="330" />
            </Array>
          </mxGeometry>
        </mxCell>
        <mxCell id="izl7ZZYjlAMkSlLclQ0_-11" style="edgeStyle=orthogonalEdgeStyle;rounded=0;orthogonalLoop=1;jettySize=auto;html=1;exitX=0.75;exitY=1;exitDx=0;exitDy=0;entryX=0.5;entryY=1;entryDx=0;entryDy=0;" edge="1" parent="1" source="izl7ZZYjlAMkSlLclQ0_-1" target="izl7ZZYjlAMkSlLclQ0_-7">
          <mxGeometry relative="1" as="geometry" />
        </mxCell>
        <mxCell id="izl7ZZYjlAMkSlLclQ0_-1" value="&lt;font style=&quot;font-size: 16px;&quot; face=&quot;Times New Roman&quot;&gt;Home&lt;/font&gt;" style="rounded=0;whiteSpace=wrap;html=1;" vertex="1" parent="1">
          <mxGeometry x="150" y="170" width="100" height="40" as="geometry" />
        </mxCell>
        <mxCell id="izl7ZZYjlAMkSlLclQ0_-6" style="edgeStyle=orthogonalEdgeStyle;rounded=0;orthogonalLoop=1;jettySize=auto;html=1;exitX=0.75;exitY=0;exitDx=0;exitDy=0;entryX=0.5;entryY=0;entryDx=0;entryDy=0;" edge="1" parent="1" source="izl7ZZYjlAMkSlLclQ0_-2" target="izl7ZZYjlAMkSlLclQ0_-3">
          <mxGeometry relative="1" as="geometry" />
        </mxCell>
        <mxCell id="izl7ZZYjlAMkSlLclQ0_-10" style="edgeStyle=orthogonalEdgeStyle;rounded=0;orthogonalLoop=1;jettySize=auto;html=1;exitX=0.5;exitY=1;exitDx=0;exitDy=0;entryX=0.5;entryY=0;entryDx=0;entryDy=0;" edge="1" parent="1" source="izl7ZZYjlAMkSlLclQ0_-2" target="izl7ZZYjlAMkSlLclQ0_-7">
          <mxGeometry relative="1" as="geometry" />
        </mxCell>
        <mxCell id="izl7ZZYjlAMkSlLclQ0_-2" value="&lt;font style=&quot;font-size: 16px;&quot; face=&quot;Times New Roman&quot;&gt;Catalog&lt;/font&gt;" style="rounded=0;whiteSpace=wrap;html=1;" vertex="1" parent="1">
          <mxGeometry x="280" y="170" width="100" height="40" as="geometry" />
        </mxCell>
        <mxCell id="izl7ZZYjlAMkSlLclQ0_-3" value="&lt;font style=&quot;font-size: 16px;&quot; face=&quot;Times New Roman&quot;&gt;Basket&lt;/font&gt;" style="rounded=0;whiteSpace=wrap;html=1;" vertex="1" parent="1">
          <mxGeometry x="414" y="170" width="100" height="40" as="geometry" />
        </mxCell>
        <mxCell id="izl7ZZYjlAMkSlLclQ0_-12" style="edgeStyle=orthogonalEdgeStyle;rounded=0;orthogonalLoop=1;jettySize=auto;html=1;exitX=0.75;exitY=1;exitDx=0;exitDy=0;entryX=0.25;entryY=1;entryDx=0;entryDy=0;" edge="1" parent="1" source="izl7ZZYjlAMkSlLclQ0_-7" target="izl7ZZYjlAMkSlLclQ0_-3">
          <mxGeometry relative="1" as="geometry" />
        </mxCell>
        <mxCell id="izl7ZZYjlAMkSlLclQ0_-7" value="&lt;span style=&quot;font-family: &amp;quot;Yandex Sans Text&amp;quot;; font-size: 16px; text-align: start; caret-color: rgb(250, 95, 151); white-space-collapse: preserve; background-color: rgb(255, 255, 255);&quot;&gt;CatalogCard&lt;/span&gt;" style="rounded=0;whiteSpace=wrap;html=1;" vertex="1" parent="1">
          <mxGeometry x="280" y="230" width="100" height="40" as="geometry" />
        </mxCell>
      </root>
    </mxGraphModel>
  </diagram>
</mxfile>
